<?xml version="1.0"?>
<svg width="57" height="200" xmlns="http://www.w3.org/2000/svg" xmlns:svg="http://www.w3.org/2000/svg" xmlns:xlink="http://www.w3.org/1999/xlink">
 <!-- Created with SVG-edit - https://github.com/SVG-Edit/svgedit-->
 <defs>
  <symbol height="132px" id="svg_4" stroke-width="0" transform="rotate(0)matrix(1, 0, 0, 1, 0, 0)" viewBox="0 0 24.00 24.00" width="132px" xmlns="http://www.w3.org/2000/svg">
   <g id="svg_3" stroke-width="0"/>
   <g id="svg_2" stroke="#CCCCCC" stroke-linecap="round" stroke-linejoin="round" stroke-width="0.48"/>
   <g id="svg_1">
    <path d="m15,20c0,1.66 -1.34,3 -3,3c-1.66,0 -3,-1.34 -3,-3c0,-1.66 1.34,-3 3,-3c1.66,0 3,1.34 3,3zm-4.03,0c0,0.57 0.46,1.03 1.03,1.03c0.57,0 1.03,-0.46 1.03,-1.03c0,-0.57 -0.46,-1.03 -1.03,-1.03c-0.57,0 -1.03,0.46 -1.03,1.03z" fill="#0F0F0F"/>
    <path d="m15,12c0,1.66 -1.34,3 -3,3c-1.66,0 -3,-1.34 -3,-3c0,-1.66 1.34,-3 3,-3c1.66,0 3,1.34 3,3zm-4.03,0c0,0.57 0.46,1.03 1.03,1.03c0.57,0 1.03,-0.46 1.03,-1.03c0,-0.57 -0.46,-1.03 -1.03,-1.03c-0.57,0 -1.03,0.46 -1.03,1.03z" fill="#0F0F0F"/>
    <path d="m15,4c0,1.66 -1.34,3 -3,3c-1.66,0 -3,-1.34 -3,-3c0,-1.66 1.34,-3 3,-3c1.66,0 3,1.34 3,3zm-4.03,0c0,0.57 0.46,1.03 1.03,1.03c0.57,0 1.03,-0.46 1.03,-1.03c0,-0.57 -0.46,-1.03 -1.03,-1.03c-0.57,0 -1.03,0.46 -1.03,1.03z" fill="#0F0F0F"/>
   </g>
  </symbol>
 </defs>
 <g class="layer">
  <title>Layer 1</title>
  <g id="svg_9">
   <use id="svg_5" transform="matrix(1.61652, 0, 0, 1.61652, 155.092, 249.833)" x="-144.2" xlink:href="#svg_4" y="-158.81"/>
   <ellipse cx="27.49" cy="29.51" fill="#000000" id="svg_6" rx="13.09" ry="12.84" stroke="#000000"/>
   <ellipse cx="28.51" cy="99.75" fill="#000000" id="svg_7" rx="13.09" ry="12.84" stroke="#000000"/>
   <ellipse cx="29.01" cy="171.64" fill="#000000" id="svg_8" rx="13.09" ry="12.84" stroke="#000000"/>
  </g>
 </g>
</svg>